<svg width="32" height="32" viewBox="0 0 32 32" xmlns="http://www.w3.org/2000/svg">
  <path d="M4.13 22.27L3.30 22.27L3.30 20.60L2.46 20.60L2.46 18.93L1.62 18.93L1.62 13.07L2.46 13.07L2.46 11.40L3.30 11.40L3.30 9.73L4.13 9.73L4.13 8.89L5.80 8.89L5.80 8.06L10.82 8.06L10.82 8.89L13.33 8.89L13.33 9.73L14.16 9.73L14.16 11.40L15 11.40L15 13.91L13.33 13.91L13.33 11.40L12.49 11.40L12.49 10.57L11.66 10.57L11.66 9.73L5.80 9.73L5.80 10.57L4.97 10.57L4.97 11.40L4.13 11.40L4.13 13.07L3.30 13.07L3.30 18.93L4.13 18.93L4.13 20.60L4.97 20.60L4.97 21.43L5.80 21.43L5.80 22.27L11.66 22.27L11.66 21.43L12.49 21.43L12.49 20.60L13.33 20.60L13.33 18.09L15 18.09L15 20.60L14.16 20.60L14.16 22.27L13.33 22.27L13.33 23.11L10.82 23.11L10.82 23.94L5.80 23.94L5.80 23.11L4.13 23.11L4.13 22.27Z M19.51 22.27L18.67 22.27L18.67 20.60L17.84 20.60L17.84 18.93L17 18.93L17 13.07L17.84 13.07L17.84 11.40L18.67 11.40L18.67 9.73L19.51 9.73L19.51 8.89L21.18 8.89L21.18 8.06L26.20 8.06L26.20 8.89L28.70 8.89L28.70 9.73L29.54 9.73L29.54 11.40L30.38 11.40L30.38 13.91L28.70 13.91L28.70 11.40L27.87 11.40L27.87 10.57L27.03 10.57L27.03 9.73L21.18 9.73L21.18 10.57L20.34 10.57L20.34 11.40L19.51 11.40L19.51 13.07L18.67 13.07L18.67 18.93L19.51 18.93L19.51 20.60L20.34 20.60L20.34 21.43L21.18 21.43L21.18 22.27L27.03 22.27L27.03 21.43L27.87 21.43L27.87 20.60L28.70 20.60L28.70 18.09L30.38 18.09L30.38 20.60L29.54 20.60L29.54 22.27L28.70 22.27L28.70 23.11L26.20 23.11L26.20 23.94L21.18 23.94L21.18 23.11L19.51 23.11L19.51 22.27Z" fill="#ffffff"/>
</svg>